<svg xmlns="http://www.w3.org/2000/svg" width="800" height="552" viewBox="0 48 800 552" role="img" aria-labelledby="title desc">
<title id="title">Genetic algorithm operators</title>
<desc id="desc">Actual ninth offspring from generation zero with seed 8. Parents are 12 and 7, crossover follows gene 7, and genes 4 and 14 mutate. Arrows encode left and right pushes.</desc>
<defs><style>text {font-family: sans-serif;}</style>
<marker id="arrow19354C" markerWidth="11" markerHeight="11" refX="10" refY="5.5" orient="auto" markerUnits="userSpaceOnUse"><path d="M 1,1 L 10,5.5 L 1,10 Z" fill="#19354C"/></marker>
<marker id="arrow2368AE" markerWidth="11" markerHeight="11" refX="10" refY="5.5" orient="auto" markerUnits="userSpaceOnUse"><path d="M 1,1 L 10,5.5 L 1,10 Z" fill="#2368AE"/></marker>
<marker id="arrow087F79" markerWidth="11" markerHeight="11" refX="10" refY="5.5" orient="auto" markerUnits="userSpaceOnUse"><path d="M 1,1 L 10,5.5 L 1,10 Z" fill="#087F79"/></marker>
<marker id="arrow7851AF" markerWidth="11" markerHeight="11" refX="10" refY="5.5" orient="auto" markerUnits="userSpaceOnUse"><path d="M 1,1 L 10,5.5 L 1,10 Z" fill="#7851AF"/></marker>
<marker id="arrowC56813" markerWidth="11" markerHeight="11" refX="10" refY="5.5" orient="auto" markerUnits="userSpaceOnUse"><path d="M 1,1 L 10,5.5 L 1,10 Z" fill="#C56813"/></marker>
<marker id="arrowBC3B50" markerWidth="11" markerHeight="11" refX="10" refY="5.5" orient="auto" markerUnits="userSpaceOnUse"><path d="M 1,1 L 10,5.5 L 1,10 Z" fill="#BC3B50"/></marker>
<marker id="arrow607487" markerWidth="11" markerHeight="11" refX="10" refY="5.5" orient="auto" markerUnits="userSpaceOnUse"><path d="M 1,1 L 10,5.5 L 1,10 Z" fill="#607487"/></marker>
<marker id="arrowD4DEE6" markerWidth="11" markerHeight="11" refX="10" refY="5.5" orient="auto" markerUnits="userSpaceOnUse"><path d="M 1,1 L 10,5.5 L 1,10 Z" fill="#D4DEE6"/></marker>
</defs>
<rect x="0.00" y="0.00" width="800.00" height="600.00" rx="0" fill="white" stroke="none" stroke-width="1.5"/>
<text x="32.00" y="73.00" font-size="18" fill="#607487" text-anchor="start" font-weight="400">Evolve push sequences to increase swing height.</text>
<text x="32.00" y="106.00" font-size="17" fill="#19354C" text-anchor="start" font-weight="400">One gene = push direction for 0.5 s (← left / → right)</text>
<text x="375.25" y="133.00" font-size="17" fill="#2368AE" text-anchor="middle" font-weight="400">First part of A</text>
<text x="609.75" y="133.00" font-size="17" fill="#C56813" text-anchor="middle" font-weight="400">Last part of B</text>
<text x="171.00" y="171.00" font-size="18" fill="#2368AE" text-anchor="start" font-weight="400">Parent A</text>
<rect x="272.00" y="147.00" width="26.50" height="35.00" rx="4" fill="#E2EFFB" stroke="#A7C9EA" stroke-width="1"/>
<text x="285.25" y="171.00" font-size="20" fill="#2368AE" text-anchor="middle" font-weight="700">→</text>
<rect x="301.50" y="147.00" width="26.50" height="35.00" rx="4" fill="#E2EFFB" stroke="#A7C9EA" stroke-width="1"/>
<text x="314.75" y="171.00" font-size="20" fill="#2368AE" text-anchor="middle" font-weight="700">←</text>
<rect x="331.00" y="147.00" width="26.50" height="35.00" rx="4" fill="#E2EFFB" stroke="#A7C9EA" stroke-width="1"/>
<text x="344.25" y="171.00" font-size="20" fill="#2368AE" text-anchor="middle" font-weight="700">→</text>
<rect x="360.50" y="147.00" width="26.50" height="35.00" rx="4" fill="#E2EFFB" stroke="#A7C9EA" stroke-width="1"/>
<text x="373.75" y="171.00" font-size="20" fill="#2368AE" text-anchor="middle" font-weight="700">→</text>
<rect x="390.00" y="147.00" width="26.50" height="35.00" rx="4" fill="#E2EFFB" stroke="#A7C9EA" stroke-width="1"/>
<text x="403.25" y="171.00" font-size="20" fill="#2368AE" text-anchor="middle" font-weight="700">←</text>
<rect x="419.50" y="147.00" width="26.50" height="35.00" rx="4" fill="#E2EFFB" stroke="#A7C9EA" stroke-width="1"/>
<text x="432.75" y="171.00" font-size="20" fill="#2368AE" text-anchor="middle" font-weight="700">←</text>
<rect x="449.00" y="147.00" width="26.50" height="35.00" rx="4" fill="#E2EFFB" stroke="#A7C9EA" stroke-width="1"/>
<text x="462.25" y="171.00" font-size="20" fill="#2368AE" text-anchor="middle" font-weight="700">←</text>
<rect x="478.50" y="147.00" width="26.50" height="35.00" rx="4" fill="#F2F6F9" stroke="#E3E9EF" stroke-width="1"/>
<text x="491.75" y="171.00" font-size="20" fill="#A7B2BD" text-anchor="middle" font-weight="700">←</text>
<rect x="508.00" y="147.00" width="26.50" height="35.00" rx="4" fill="#F2F6F9" stroke="#E3E9EF" stroke-width="1"/>
<text x="521.25" y="171.00" font-size="20" fill="#A7B2BD" text-anchor="middle" font-weight="700">←</text>
<rect x="537.50" y="147.00" width="26.50" height="35.00" rx="4" fill="#F2F6F9" stroke="#E3E9EF" stroke-width="1"/>
<text x="550.75" y="171.00" font-size="20" fill="#A7B2BD" text-anchor="middle" font-weight="700">→</text>
<rect x="567.00" y="147.00" width="26.50" height="35.00" rx="4" fill="#F2F6F9" stroke="#E3E9EF" stroke-width="1"/>
<text x="580.25" y="171.00" font-size="20" fill="#A7B2BD" text-anchor="middle" font-weight="700">→</text>
<rect x="596.50" y="147.00" width="26.50" height="35.00" rx="4" fill="#F2F6F9" stroke="#E3E9EF" stroke-width="1"/>
<text x="609.75" y="171.00" font-size="20" fill="#A7B2BD" text-anchor="middle" font-weight="700">←</text>
<rect x="626.00" y="147.00" width="26.50" height="35.00" rx="4" fill="#F2F6F9" stroke="#E3E9EF" stroke-width="1"/>
<text x="639.25" y="171.00" font-size="20" fill="#A7B2BD" text-anchor="middle" font-weight="700">←</text>
<rect x="655.50" y="147.00" width="26.50" height="35.00" rx="4" fill="#F2F6F9" stroke="#E3E9EF" stroke-width="1"/>
<text x="668.75" y="171.00" font-size="20" fill="#A7B2BD" text-anchor="middle" font-weight="700">→</text>
<rect x="685.00" y="147.00" width="26.50" height="35.00" rx="4" fill="#F2F6F9" stroke="#E3E9EF" stroke-width="1"/>
<text x="698.25" y="171.00" font-size="20" fill="#A7B2BD" text-anchor="middle" font-weight="700">→</text>
<rect x="714.50" y="147.00" width="26.50" height="35.00" rx="4" fill="#F2F6F9" stroke="#E3E9EF" stroke-width="1"/>
<text x="727.75" y="171.00" font-size="20" fill="#A7B2BD" text-anchor="middle" font-weight="700">←</text>
<text x="171.00" y="223.00" font-size="18" fill="#C56813" text-anchor="start" font-weight="400">Parent B</text>
<rect x="272.00" y="199.00" width="26.50" height="35.00" rx="4" fill="#F2F6F9" stroke="#E3E9EF" stroke-width="1"/>
<text x="285.25" y="223.00" font-size="20" fill="#A7B2BD" text-anchor="middle" font-weight="700">←</text>
<rect x="301.50" y="199.00" width="26.50" height="35.00" rx="4" fill="#F2F6F9" stroke="#E3E9EF" stroke-width="1"/>
<text x="314.75" y="223.00" font-size="20" fill="#A7B2BD" text-anchor="middle" font-weight="700">←</text>
<rect x="331.00" y="199.00" width="26.50" height="35.00" rx="4" fill="#F2F6F9" stroke="#E3E9EF" stroke-width="1"/>
<text x="344.25" y="223.00" font-size="20" fill="#A7B2BD" text-anchor="middle" font-weight="700">→</text>
<rect x="360.50" y="199.00" width="26.50" height="35.00" rx="4" fill="#F2F6F9" stroke="#E3E9EF" stroke-width="1"/>
<text x="373.75" y="223.00" font-size="20" fill="#A7B2BD" text-anchor="middle" font-weight="700">→</text>
<rect x="390.00" y="199.00" width="26.50" height="35.00" rx="4" fill="#F2F6F9" stroke="#E3E9EF" stroke-width="1"/>
<text x="403.25" y="223.00" font-size="20" fill="#A7B2BD" text-anchor="middle" font-weight="700">→</text>
<rect x="419.50" y="199.00" width="26.50" height="35.00" rx="4" fill="#F2F6F9" stroke="#E3E9EF" stroke-width="1"/>
<text x="432.75" y="223.00" font-size="20" fill="#A7B2BD" text-anchor="middle" font-weight="700">←</text>
<rect x="449.00" y="199.00" width="26.50" height="35.00" rx="4" fill="#F2F6F9" stroke="#E3E9EF" stroke-width="1"/>
<text x="462.25" y="223.00" font-size="20" fill="#A7B2BD" text-anchor="middle" font-weight="700">←</text>
<rect x="478.50" y="199.00" width="26.50" height="35.00" rx="4" fill="#FFF0DE" stroke="#E9BE8C" stroke-width="1"/>
<text x="491.75" y="223.00" font-size="20" fill="#C56813" text-anchor="middle" font-weight="700">←</text>
<rect x="508.00" y="199.00" width="26.50" height="35.00" rx="4" fill="#FFF0DE" stroke="#E9BE8C" stroke-width="1"/>
<text x="521.25" y="223.00" font-size="20" fill="#C56813" text-anchor="middle" font-weight="700">←</text>
<rect x="537.50" y="199.00" width="26.50" height="35.00" rx="4" fill="#FFF0DE" stroke="#E9BE8C" stroke-width="1"/>
<text x="550.75" y="223.00" font-size="20" fill="#C56813" text-anchor="middle" font-weight="700">←</text>
<rect x="567.00" y="199.00" width="26.50" height="35.00" rx="4" fill="#FFF0DE" stroke="#E9BE8C" stroke-width="1"/>
<text x="580.25" y="223.00" font-size="20" fill="#C56813" text-anchor="middle" font-weight="700">→</text>
<rect x="596.50" y="199.00" width="26.50" height="35.00" rx="4" fill="#FFF0DE" stroke="#E9BE8C" stroke-width="1"/>
<text x="609.75" y="223.00" font-size="20" fill="#C56813" text-anchor="middle" font-weight="700">←</text>
<rect x="626.00" y="199.00" width="26.50" height="35.00" rx="4" fill="#FFF0DE" stroke="#E9BE8C" stroke-width="1"/>
<text x="639.25" y="223.00" font-size="20" fill="#C56813" text-anchor="middle" font-weight="700">→</text>
<rect x="655.50" y="199.00" width="26.50" height="35.00" rx="4" fill="#FFF0DE" stroke="#E9BE8C" stroke-width="1"/>
<text x="668.75" y="223.00" font-size="20" fill="#C56813" text-anchor="middle" font-weight="700">←</text>
<rect x="685.00" y="199.00" width="26.50" height="35.00" rx="4" fill="#FFF0DE" stroke="#E9BE8C" stroke-width="1"/>
<text x="698.25" y="223.00" font-size="20" fill="#C56813" text-anchor="middle" font-weight="700">←</text>
<rect x="714.50" y="199.00" width="26.50" height="35.00" rx="4" fill="#FFF0DE" stroke="#E9BE8C" stroke-width="1"/>
<text x="727.75" y="223.00" font-size="20" fill="#C56813" text-anchor="middle" font-weight="700">←</text>
<text x="171.00" y="314.00" font-size="18" fill="#19354C" text-anchor="start" font-weight="400">Crossover</text>
<rect x="272.00" y="290.00" width="26.50" height="35.00" rx="4" fill="#E2EFFB" stroke="#A7C9EA" stroke-width="1"/>
<text x="285.25" y="314.00" font-size="20" fill="#2368AE" text-anchor="middle" font-weight="700">→</text>
<rect x="301.50" y="290.00" width="26.50" height="35.00" rx="4" fill="#E2EFFB" stroke="#A7C9EA" stroke-width="1"/>
<text x="314.75" y="314.00" font-size="20" fill="#2368AE" text-anchor="middle" font-weight="700">←</text>
<rect x="331.00" y="290.00" width="26.50" height="35.00" rx="4" fill="#E2EFFB" stroke="#A7C9EA" stroke-width="1"/>
<text x="344.25" y="314.00" font-size="20" fill="#2368AE" text-anchor="middle" font-weight="700">→</text>
<rect x="360.50" y="290.00" width="26.50" height="35.00" rx="4" fill="#E2EFFB" stroke="#A7C9EA" stroke-width="1"/>
<text x="373.75" y="314.00" font-size="20" fill="#2368AE" text-anchor="middle" font-weight="700">→</text>
<rect x="390.00" y="290.00" width="26.50" height="35.00" rx="4" fill="#E2EFFB" stroke="#A7C9EA" stroke-width="1"/>
<text x="403.25" y="314.00" font-size="20" fill="#2368AE" text-anchor="middle" font-weight="700">←</text>
<rect x="419.50" y="290.00" width="26.50" height="35.00" rx="4" fill="#E2EFFB" stroke="#A7C9EA" stroke-width="1"/>
<text x="432.75" y="314.00" font-size="20" fill="#2368AE" text-anchor="middle" font-weight="700">←</text>
<rect x="449.00" y="290.00" width="26.50" height="35.00" rx="4" fill="#E2EFFB" stroke="#A7C9EA" stroke-width="1"/>
<text x="462.25" y="314.00" font-size="20" fill="#2368AE" text-anchor="middle" font-weight="700">←</text>
<rect x="478.50" y="290.00" width="26.50" height="35.00" rx="4" fill="#FFF0DE" stroke="#E9BE8C" stroke-width="1"/>
<text x="491.75" y="314.00" font-size="20" fill="#C56813" text-anchor="middle" font-weight="700">←</text>
<rect x="508.00" y="290.00" width="26.50" height="35.00" rx="4" fill="#FFF0DE" stroke="#E9BE8C" stroke-width="1"/>
<text x="521.25" y="314.00" font-size="20" fill="#C56813" text-anchor="middle" font-weight="700">←</text>
<rect x="537.50" y="290.00" width="26.50" height="35.00" rx="4" fill="#FFF0DE" stroke="#E9BE8C" stroke-width="1"/>
<text x="550.75" y="314.00" font-size="20" fill="#C56813" text-anchor="middle" font-weight="700">←</text>
<rect x="567.00" y="290.00" width="26.50" height="35.00" rx="4" fill="#FFF0DE" stroke="#E9BE8C" stroke-width="1"/>
<text x="580.25" y="314.00" font-size="20" fill="#C56813" text-anchor="middle" font-weight="700">→</text>
<rect x="596.50" y="290.00" width="26.50" height="35.00" rx="4" fill="#FFF0DE" stroke="#E9BE8C" stroke-width="1"/>
<text x="609.75" y="314.00" font-size="20" fill="#C56813" text-anchor="middle" font-weight="700">←</text>
<rect x="626.00" y="290.00" width="26.50" height="35.00" rx="4" fill="#FFF0DE" stroke="#E9BE8C" stroke-width="1"/>
<text x="639.25" y="314.00" font-size="20" fill="#C56813" text-anchor="middle" font-weight="700">→</text>
<rect x="655.50" y="290.00" width="26.50" height="35.00" rx="4" fill="#FFF0DE" stroke="#E9BE8C" stroke-width="1"/>
<text x="668.75" y="314.00" font-size="20" fill="#C56813" text-anchor="middle" font-weight="700">←</text>
<rect x="685.00" y="290.00" width="26.50" height="35.00" rx="4" fill="#FFF0DE" stroke="#E9BE8C" stroke-width="1"/>
<text x="698.25" y="314.00" font-size="20" fill="#C56813" text-anchor="middle" font-weight="700">←</text>
<rect x="714.50" y="290.00" width="26.50" height="35.00" rx="4" fill="#FFF0DE" stroke="#E9BE8C" stroke-width="1"/>
<text x="727.75" y="314.00" font-size="20" fill="#C56813" text-anchor="middle" font-weight="700">←</text>
<text x="171.00" y="424.00" font-size="18" fill="#19354C" text-anchor="start" font-weight="400">Mutation</text>
<rect x="272.00" y="400.00" width="26.50" height="35.00" rx="4" fill="#E2EFFB" stroke="#A7C9EA" stroke-width="1"/>
<text x="285.25" y="424.00" font-size="20" fill="#2368AE" text-anchor="middle" font-weight="700">→</text>
<rect x="301.50" y="400.00" width="26.50" height="35.00" rx="4" fill="#E2EFFB" stroke="#A7C9EA" stroke-width="1"/>
<text x="314.75" y="424.00" font-size="20" fill="#2368AE" text-anchor="middle" font-weight="700">←</text>
<rect x="331.00" y="400.00" width="26.50" height="35.00" rx="4" fill="#E2EFFB" stroke="#A7C9EA" stroke-width="1"/>
<text x="344.25" y="424.00" font-size="20" fill="#2368AE" text-anchor="middle" font-weight="700">→</text>
<rect x="360.50" y="400.00" width="26.50" height="35.00" rx="4" fill="#E2EFFB" stroke="#BC3B50" stroke-width="2.5"/>
<text x="373.75" y="424.00" font-size="20" fill="#2368AE" text-anchor="middle" font-weight="700">←</text>
<rect x="390.00" y="400.00" width="26.50" height="35.00" rx="4" fill="#E2EFFB" stroke="#A7C9EA" stroke-width="1"/>
<text x="403.25" y="424.00" font-size="20" fill="#2368AE" text-anchor="middle" font-weight="700">←</text>
<rect x="419.50" y="400.00" width="26.50" height="35.00" rx="4" fill="#E2EFFB" stroke="#A7C9EA" stroke-width="1"/>
<text x="432.75" y="424.00" font-size="20" fill="#2368AE" text-anchor="middle" font-weight="700">←</text>
<rect x="449.00" y="400.00" width="26.50" height="35.00" rx="4" fill="#E2EFFB" stroke="#A7C9EA" stroke-width="1"/>
<text x="462.25" y="424.00" font-size="20" fill="#2368AE" text-anchor="middle" font-weight="700">←</text>
<rect x="478.50" y="400.00" width="26.50" height="35.00" rx="4" fill="#FFF0DE" stroke="#E9BE8C" stroke-width="1"/>
<text x="491.75" y="424.00" font-size="20" fill="#C56813" text-anchor="middle" font-weight="700">←</text>
<rect x="508.00" y="400.00" width="26.50" height="35.00" rx="4" fill="#FFF0DE" stroke="#E9BE8C" stroke-width="1"/>
<text x="521.25" y="424.00" font-size="20" fill="#C56813" text-anchor="middle" font-weight="700">←</text>
<rect x="537.50" y="400.00" width="26.50" height="35.00" rx="4" fill="#FFF0DE" stroke="#E9BE8C" stroke-width="1"/>
<text x="550.75" y="424.00" font-size="20" fill="#C56813" text-anchor="middle" font-weight="700">←</text>
<rect x="567.00" y="400.00" width="26.50" height="35.00" rx="4" fill="#FFF0DE" stroke="#E9BE8C" stroke-width="1"/>
<text x="580.25" y="424.00" font-size="20" fill="#C56813" text-anchor="middle" font-weight="700">→</text>
<rect x="596.50" y="400.00" width="26.50" height="35.00" rx="4" fill="#FFF0DE" stroke="#E9BE8C" stroke-width="1"/>
<text x="609.75" y="424.00" font-size="20" fill="#C56813" text-anchor="middle" font-weight="700">←</text>
<rect x="626.00" y="400.00" width="26.50" height="35.00" rx="4" fill="#FFF0DE" stroke="#E9BE8C" stroke-width="1"/>
<text x="639.25" y="424.00" font-size="20" fill="#C56813" text-anchor="middle" font-weight="700">→</text>
<rect x="655.50" y="400.00" width="26.50" height="35.00" rx="4" fill="#FFF0DE" stroke="#BC3B50" stroke-width="2.5"/>
<text x="668.75" y="424.00" font-size="20" fill="#C56813" text-anchor="middle" font-weight="700">→</text>
<rect x="685.00" y="400.00" width="26.50" height="35.00" rx="4" fill="#FFF0DE" stroke="#E9BE8C" stroke-width="1"/>
<text x="698.25" y="424.00" font-size="20" fill="#C56813" text-anchor="middle" font-weight="700">←</text>
<rect x="714.50" y="400.00" width="26.50" height="35.00" rx="4" fill="#FFF0DE" stroke="#E9BE8C" stroke-width="1"/>
<text x="727.75" y="424.00" font-size="20" fill="#C56813" text-anchor="middle" font-weight="700">←</text>
<text x="32.00" y="166.00" font-size="21" fill="#19354C" text-anchor="start" font-weight="700">1  Selection</text>
<text x="32.00" y="194.00" font-size="16" fill="#607487" text-anchor="start" font-weight="400">Evaluate fitness;</text>
<text x="32.00" y="217.00" font-size="16" fill="#607487" text-anchor="start" font-weight="400">select parents.</text>
<text x="32.00" y="308.00" font-size="21" fill="#19354C" text-anchor="start" font-weight="700">2  Crossover</text>
<text x="32.00" y="336.00" font-size="16" fill="#607487" text-anchor="start" font-weight="400">Combine parts</text>
<text x="32.00" y="359.00" font-size="16" fill="#607487" text-anchor="start" font-weight="400">of two parents.</text>
<text x="32.00" y="418.00" font-size="21" fill="#19354C" text-anchor="start" font-weight="700">3  Mutation</text>
<text x="32.00" y="446.00" font-size="16" fill="#607487" text-anchor="start" font-weight="400">Reverse selected</text>
<text x="32.00" y="469.00" font-size="16" fill="#607487" text-anchor="start" font-weight="400">push directions.</text>
<path d="M 477.00,140.00 L 477.00,330.00" fill="none" stroke="#607487" stroke-width="1.5" stroke-linecap="round" stroke-linejoin="round" stroke-dasharray="4 5"/>
<path d="M 507.00,246.00 L 507.00,278.00" fill="none" stroke="#607487" stroke-width="2.5" stroke-linecap="round" stroke-linejoin="round" marker-end="url(#arrow607487)"/>
<path d="M 507.00,339.00 L 507.00,386.00" fill="none" stroke="#607487" stroke-width="2.5" stroke-linecap="round" stroke-linejoin="round" marker-end="url(#arrow607487)"/>
<text x="743.00" y="468.00" font-size="17" fill="#BC3B50" text-anchor="end" font-weight="400">Red outline = mutated gene</text>
<rect x="32.00" y="501.00" width="736.00" height="78.00" rx="10" fill="#F2F6F9" stroke="none" stroke-width="1.5"/>
<text x="52.00" y="533.00" font-size="21" fill="#19354C" text-anchor="start" font-weight="700">4  Evaluation</text>
<text x="259.00" y="532.00" font-size="18" fill="#19354C" text-anchor="start" font-weight="400">Evaluate the next generation.</text>
<text x="259.00" y="560.00" font-size="17" fill="#087F79" text-anchor="start" font-weight="400">Elitism: keep the best candidate.</text>
</svg>
